<?xml version="1.0" encoding="utf-8"?>
<!-- Generator: Adobe Illustrator 16.0.0, SVG Export Plug-In . SVG Version: 6.00 Build 0)  -->
<!DOCTYPE svg PUBLIC "-//W3C//DTD SVG 1.1//EN" "http://www.w3.org/Graphics/SVG/1.1/DTD/svg11.dtd">
<svg version="1.1" id="Layer_1" xmlns="http://www.w3.org/2000/svg" xmlns:xlink="http://www.w3.org/1999/xlink" x="0px" y="0px"
	 width="66px" height="66px" viewBox="0 0 66 66" enable-background="new 0 0 66 66" xml:space="preserve">
<g>
	<g>
		<g>
			<g>
				<g>
					<g>
						<path fill="#333333" d="M64,33c0,17.119-13.88,31.002-31,31.002C15.882,64.002,2,50.119,2,33C2,15.879,15.882,1.998,33,1.998
							C50.12,1.998,64,15.879,64,33z"/>
						<path d="M33,1.998c17.12,0,31,13.881,31,31.002c0,17.119-13.88,31.002-31,31.002"/>
						<path fill="#232322" d="M11.077,11.078C23.185-1.029,42.815-1.027,54.923,11.08c12.102,12.105,12.104,31.732,0,43.842"/>
					</g>
				</g>
			</g>
		</g>
	</g>
	<g>
		<g>
			<path d="M43.831,35.566c0,0.223-0.051,0.438-0.155,0.645C43.429,36.701,42.927,37,42.378,37H23.623
				c-0.549,0-1.051-0.299-1.298-0.789c-0.25-0.49-0.197-1.07,0.129-1.512l9.378-12.691c0.274-0.371,0.709-0.588,1.169-0.588
				s0.895,0.219,1.169,0.59l9.377,12.693C43.735,34.959,43.831,35.262,43.831,35.566z"/>
		</g>
		<path d="M23.07,44c0,1.471,1.194,3,2.664,3h14.531c1.47,0,2.664-1.529,2.664-3c0-1.467-1.194-3-2.664-3H25.734
			C24.265,41,23.07,42.533,23.07,44z"/>
	</g>
	<g>
		<g>
			<path fill="#F73974" d="M43.831,32.984c0,0.223-0.051,0.23-0.155,0.436C43.429,33.91,42.927,34,42.378,34H23.623
				c-0.549,0-1.051-0.09-1.298-0.58c-0.25-0.49-0.197-0.969,0.129-1.408l9.378-12.639c0.274-0.371,0.709-0.562,1.169-0.562
				s0.895,0.232,1.169,0.604l9.377,12.699C43.735,32.369,43.831,32.68,43.831,32.984z"/>
		</g>
		<g>
			<path fill="#ED266E" d="M43.831,32.984c0,0.223-0.051,0.23-0.155,0.436C43.429,33.91,42.927,34,42.378,34H27.441
				c-0.549,0-1.051-0.09-1.298-0.58c-0.25-0.49,0.05-1.305,0.338-1.885l5.351-12.162c0.274-0.371,0.709-0.562,1.169-0.562
				s0.895,0.232,1.169,0.604l9.377,12.699C43.735,32.369,43.831,32.68,43.831,32.984z"/>
		</g>
		<path fill="#DD0772" d="M23.07,41.5c0,1.471,1.194,2.5,2.664,2.5h14.531c1.47,0,2.664-1.029,2.664-2.5
			c0-1.467-1.194-2.5-2.664-2.5H25.734C24.265,39,23.07,40.033,23.07,41.5z"/>
	</g>
</g>
</svg>
